<?xml version="1.0" standalone="no"?>
<!DOCTYPE svg PUBLIC "-//W3C//DTD SVG 20010904//EN"
 "http://www.w3.org/TR/2001/REC-SVG-20010904/DTD/svg10.dtd">
<svg version="1.0" xmlns="http://www.w3.org/2000/svg"
 width="1116.000000pt" height="1280.000000pt" viewBox="0 0 1116.000000 1280.000000"
 preserveAspectRatio="xMidYMid meet">
<metadata>
Created by potrace 1.15, written by Peter Selinger 2001-2017
</metadata>
<g transform="translate(0.000000,1280.000000) scale(0.100000,-0.100000)"
fill="#000000" stroke="none">
<path d="M1368 12793 c-45 -5 -118 -79 -201 -205 -174 -263 -285 -594 -343
-1023 -27 -201 -25 -635 5 -856 40 -307 112 -601 204 -844 l45 -117 -49 -109
c-324 -729 -473 -1641 -412 -2536 l6 -93 -312 0 -311 0 0 -30 0 -30 315 0 315
0 4 -22 c3 -13 14 -81 26 -153 11 -71 34 -184 51 -249 17 -65 26 -122 22 -126
-4 -4 -129 -35 -276 -68 -148 -33 -271 -62 -273 -65 -3 -3 -2 -16 2 -31 5 -20
11 -25 28 -21 151 34 524 117 534 118 8 1 32 -47 63 -128 27 -71 75 -181 107
-244 31 -63 58 -118 60 -122 2 -3 -79 -64 -180 -134 -101 -70 -187 -131 -191
-135 -4 -4 1 -17 11 -30 l19 -23 181 126 c99 70 185 128 190 129 5 2 35 -35
67 -82 142 -209 367 -446 563 -590 418 -308 932 -520 1581 -654 88 -18 164
-35 167 -38 3 -3 -18 -46 -46 -94 -61 -105 -151 -289 -210 -429 -23 -55 -82
-189 -131 -297 -181 -401 -227 -534 -236 -683 -4 -77 -2 -99 17 -147 42 -113
147 -171 310 -172 78 -1 91 2 160 35 41 20 102 57 135 82 l60 45 7 -215 c3
-118 11 -276 18 -350 6 -74 10 -137 7 -139 -6 -7 -148 102 -279 214 -141 119
-450 428 -589 587 -200 229 -400 487 -594 765 -127 182 -156 216 -210 241 -79
37 -140 17 -175 -56 -19 -40 -22 -58 -18 -130 6 -109 32 -163 220 -445 320
-480 577 -804 903 -1139 272 -278 536 -497 807 -666 90 -57 131 -88 139 -108
7 -16 36 -64 65 -107 50 -75 52 -80 42 -117 -16 -62 -22 -417 -9 -560 19 -214
62 -335 149 -414 150 -139 439 -143 587 -7 97 89 146 222 161 444 l7 101 76
-14 c462 -81 1180 -81 1642 0 l76 14 7 -101 c15 -222 64 -355 161 -444 154
-141 463 -130 602 21 79 86 116 195 134 400 13 143 7 498 -9 561 -10 36 -8 42
35 104 203 296 303 782 303 1472 l0 174 53 -51 c157 -153 315 -222 441 -193
74 16 130 60 163 127 26 55 28 65 28 188 -1 112 -5 148 -33 258 -83 333 -302
876 -465 1157 -31 52 -52 96 -49 97 4 1 81 18 172 38 650 140 1176 370 1570
683 182 145 396 380 514 565 20 31 38 57 41 57 2 0 70 -46 152 -103 220 -154
201 -143 218 -121 8 10 15 22 15 26 0 4 -75 59 -167 124 -93 64 -172 120 -176
124 -5 4 23 72 61 151 39 79 89 196 112 260 l42 116 42 -9 c253 -58 520 -117
522 -115 1 1 5 14 9 29 8 31 39 21 -285 93 -140 32 -258 60 -262 64 -4 3 7 60
23 126 16 66 38 174 49 240 11 66 22 135 25 153 l6 32 314 0 315 0 0 30 0 30
-311 0 -310 0 8 138 c11 191 8 603 -6 752 -56 600 -203 1156 -440 1662 l-50
108 59 152 c108 281 177 554 221 883 30 216 32 662 5 860 -36 262 -93 496
-167 682 -77 194 -205 406 -304 503 l-46 45 -177 0 c-130 0 -199 -5 -262 -18
-346 -72 -698 -244 -1065 -520 -116 -87 -298 -240 -386 -324 l-76 -73 -114 54
c-479 226 -1048 380 -1629 443 -230 25 -810 24 -1060 0 -651 -65 -1125 -186
-1742 -444 l-36 -15 -102 91 c-473 424 -933 688 -1365 782 -89 19 -352 33
-437 22z"/>
</g>
</svg>
